<?xml version="1.0" encoding="UTF-8"?>
<svg xmlns="http://www.w3.org/2000/svg" xmlns:xlink="http://www.w3.org/1999/xlink" width="0" height="0">
<symbol id="phone" width="10" height="16" viewBox="0 0 10 16">
<path d="M8.5 0H1.5C0.672848 0 0 0.672848 0 1.5V14.5C0 15.3272 0.672848 16 1.5 16H8.5C9.32715 16 10 15.3272 10 14.5V1.5C10 0.672848 9.32715 0 8.5 0ZM1.5 1H8.5C8.77588 1 9 1.22412 9 1.5V12H1V1.5C1 1.22412 1.22412 1 1.5 1ZM8.5 15H1.5C1.22412 15 1 14.7759 1 14.5V13H9V14.5C9 14.7759 8.77588 15 8.5 15Z"/>
</symbol>

<symbol id="email" width="16" height="12" viewBox="0 0 16 12">
<path d="M14.5 0H1.50001C0.672854 0 0 0.672853 0 1.50001V10.5C0 11.3271 0.672854 12 1.50001 12H14.5C15.3271 12 16 11.3271 16 10.5V1.50001C16 0.672853 15.3271 0 14.5 0ZM14.5 0.999994C14.5679 0.999994 14.6325 1.01409 14.6916 1.0387L8 6.83838L1.30833 1.0387C1.36742 1.01412 1.43204 0.999994 1.49998 0.999994H14.5ZM14.5 11H1.50001C1.22414 11 0.999996 10.7759 0.999996 10.5V2.09521L7.67236 7.87792C7.76661 7.95944 7.8833 7.99999 8 7.99999C8.1167 7.99999 8.23339 7.95948 8.32764 7.87792L15 2.09521V10.5C15 10.7759 14.7759 11 14.5 11Z"/>
</symbol>

<symbol id="home" data-name="Layer 1" viewBox="0 0 391.08 391.08"><defs><style>.cls-1{fill:#fff;stroke:#666766;stroke-miterlimit:10;stroke-width:3px;}.cls-2{fill:#6c6d6d;}</style></defs><title>Icon_home_remixofdynamitt</title><rect class="cls-1" x="1.5" y="1.5" width="388.08" height="388.08"/><g id="layer1"><path id="rect2391" class="cls-2" d="M326.67,203.55L200.38,91.71,74,203.6V363.47a7.44,7.44,0,0,0,7.46,7.45h79v-70.1a7.44,7.44,0,0,1,7.45-7.46h64.88a7.44,7.44,0,0,1,7.45,7.46v70.1h79a7.42,7.42,0,0,0,7.45-7.45V203.55Z" transform="translate(-4.8 -5.17)"/><path id="path2399" class="cls-2" d="M199.65,30.51L20.44,189.19l18.88,21.29L200.38,67.86l161,142.62,18.84-21.29L201.08,30.51l-0.7.81-0.73-.81h0Z" transform="translate(-4.8 -5.17)"/><path id="rect2404" class="cls-2" d="M74,53.35h45.43l-0.4,26.91L74,120.94V53.35h0Z" transform="translate(-4.8 -5.17)"/></g></symbol>

</svg>